<svg width="99" height="96" viewBox="0 0 99 96" fill="currentColor" xmlns="http://www.w3.org/2000/svg">
<path d="M32.9547 77.2991C32.9547 77.6961 32.4978 78.0137 31.9217 78.0137C31.2662 78.0732 30.8093 77.7556 30.8093 77.2991C30.8093 76.902 31.2662 76.5844 31.8423 76.5844C32.4382 76.5249 32.9547 76.8425 32.9547 77.2991ZM26.7769 76.4058C26.6379 76.8028 27.0351 77.2594 27.6311 77.3785C28.1475 77.577 28.7435 77.3785 28.8626 76.9814C28.9818 76.5844 28.6044 76.1279 28.0085 75.9492C27.492 75.8102 26.916 76.0088 26.7769 76.4058ZM35.5569 76.0683C34.9808 76.2073 34.5835 76.5844 34.6431 77.041C34.7027 77.438 35.2192 77.6961 35.8151 77.5571C36.3912 77.4182 36.7885 77.041 36.7289 76.644C36.6693 76.2668 36.1329 76.0088 35.5569 76.0683ZM48.6275 0C21.0759 0 0 20.9029 0 48.436C0 70.4505 13.8652 89.2889 33.6698 95.9191C36.2124 96.3757 37.1063 94.8075 37.1063 93.5172C37.1063 92.2864 37.0467 85.4974 37.0467 81.3288C37.0467 81.3288 23.1418 84.3064 20.2217 75.4132C20.2217 75.4132 17.9572 69.6366 14.6995 68.1478C14.6995 68.1478 10.1506 65.0313 15.0173 65.0908C15.0173 65.0908 19.9635 65.4878 22.6849 70.2123C27.0351 77.8747 34.3253 75.6713 37.1659 74.3611C37.6227 71.185 38.9139 68.9816 40.3441 67.6714C29.2401 66.4407 18.0367 64.8327 18.0367 45.7363C18.0367 40.2773 19.5464 37.5379 22.7246 34.0441C22.2081 32.7538 20.5197 27.4338 23.2411 20.5654C27.3927 19.2751 36.9474 25.9252 36.9474 25.9252C40.9202 24.8135 45.191 24.2378 49.4221 24.2378C53.6531 24.2378 57.9239 24.8135 61.8968 25.9252C61.8968 25.9252 71.4514 19.2553 75.6031 20.5654C78.3244 27.4537 76.636 32.7538 76.1195 34.0441C79.2978 37.5577 81.2445 40.2971 81.2445 45.7363C81.2445 64.8923 69.5445 66.4208 58.4404 67.6714C60.2679 69.2396 61.8173 72.2172 61.8173 76.8822C61.8173 83.5719 61.7577 91.8497 61.7577 93.4775C61.7577 94.7678 62.6715 96.336 65.1942 95.8794C85.0584 89.2889 98.5263 70.4505 98.5263 48.436C98.5263 20.9029 76.1791 0 48.6275 0ZM19.308 68.4654C19.0497 68.664 19.1093 69.1205 19.447 69.4977C19.7649 69.8153 20.2217 69.9543 20.48 69.6962C20.7382 69.4977 20.6786 69.0411 20.3409 68.664C20.0231 68.3463 19.5662 68.2074 19.308 68.4654ZM17.1626 66.8575C17.0236 67.1156 17.2222 67.4332 17.6195 67.6317C17.9374 67.8302 18.3346 67.7707 18.4737 67.4928C18.6127 67.2347 18.4141 66.9171 18.0168 66.7186C17.6195 66.5995 17.3017 66.659 17.1626 66.8575ZM23.5986 73.9244C23.2808 74.1825 23.4 74.778 23.8569 75.1552C24.3138 75.6117 24.8898 75.6713 25.148 75.3537C25.4063 75.0956 25.2871 74.5001 24.8898 74.1229C24.4528 73.6664 23.8569 73.6068 23.5986 73.9244ZM21.3341 71.0064C21.0163 71.2049 21.0163 71.721 21.3341 72.1776C21.652 72.6341 22.1883 72.8326 22.4465 72.6341C22.7643 72.3761 22.7643 71.8599 22.4465 71.4034C22.1684 70.9468 21.652 70.7483 21.3341 71.0064Z" fill="currentColor"/>
</svg>
