<?xml version="1.0" standalone="no"?>
<!DOCTYPE svg PUBLIC "-//W3C//DTD SVG 20010904//EN"
 "http://www.w3.org/TR/2001/REC-SVG-20010904/DTD/svg10.dtd">
<svg version="1.0" xmlns="http://www.w3.org/2000/svg"
 width="1116.000000pt" height="1116.000000pt" viewBox="0 0 1116.000000 1116.000000"
 preserveAspectRatio="xMidYMid meet">
<metadata>
Created by potrace 1.14, written by Peter Selinger 2001-2017
</metadata>
<g transform="translate(0.000000,1116.000000) scale(0.100000,-0.100000)"
fill="#000000" stroke="none">
<path d="M1198 11149 c-505 -58 -945 -413 -1122 -907 -14 -39 -36 -116 -48
-170 -22 -96 -22 -111 -26 -1002 -2 -620 0 -916 7 -941 31 -106 152 -159 249
-110 46 23 67 46 87 94 13 32 15 146 15 905 0 940 1 953 55 1111 97 286 331
520 619 617 157 54 160 54 1102 54 935 0 913 -1 967 48 31 28 57 88 57 132 0
44 -26 104 -57 132 -54 49 -32 48 -960 47 -477 -1 -902 -6 -945 -10z"/>
<path d="M3890 11144 c-45 -20 -68 -41 -91 -86 -34 -66 -17 -161 38 -210 55
-50 -31 -48 1743 -48 1774 0 1688 -2 1743 48 31 28 57 88 57 132 0 44 -26 104
-57 132 -55 50 32 48 -1745 48 -1449 -1 -1657 -3 -1688 -16z"/>
<path d="M8110 11144 c-46 -20 -68 -41 -91 -86 -34 -66 -17 -161 38 -210 54
-49 33 -48 961 -48 940 0 953 -1 1111 -55 286 -97 520 -331 617 -619 54 -157
54 -160 54 -1102 0 -765 2 -879 15 -911 20 -48 41 -71 87 -94 97 -49 217 4
249 110 7 25 9 319 7 941 -4 879 -5 908 -25 998 -66 286 -173 482 -372 683
-200 202 -410 317 -689 381 -96 22 -109 22 -1012 25 -803 2 -919 1 -950 -13z"/>
<path d="M7529 10216 c-123 -44 -188 -134 -188 -261 -1 -100 54 -190 144 -238
57 -31 173 -30 231 0 102 54 154 134 154 237 0 177 -184 318 -341 262z"/>
<path d="M8459 10215 c-56 -18 -133 -84 -161 -138 -66 -130 -8 -296 127 -362
58 -28 175 -27 231 2 114 60 174 191 140 306 -43 148 -198 236 -337 192z"/>
<path d="M1880 7900 l0 -1570 255 0 255 0 0 701 0 701 148 -4 c129 -3 153 -6
195 -27 42 -20 107 -96 563 -654 284 -348 529 -647 546 -664 17 -18 48 -38 69
-43 22 -6 143 -9 297 -8 l259 3 -596 757 c-328 416 -609 771 -626 789 -16 17
-57 49 -89 70 -33 22 -54 39 -48 39 29 0 172 161 704 788 318 375 578 685 578
688 0 3 -116 4 -257 2 -243 -3 -261 -5 -309 -26 -28 -13 -67 -40 -86 -60 -19
-20 -248 -291 -507 -602 -260 -311 -489 -579 -509 -596 -49 -44 -91 -54 -221
-54 l-111 0 0 670 0 670 -255 0 -255 0 0 -1570z"/>
<path d="M4817 9463 c-4 -3 -7 -710 -7 -1570 l0 -1563 910 0 910 0 0 215 0
215 -650 0 -650 0 0 1355 0 1355 -253 0 c-140 0 -257 -3 -260 -7z"/>
<path d="M7060 7895 l0 -1565 980 0 980 0 0 205 0 205 -720 0 -720 0 0 485 0
485 575 0 575 0 0 200 0 200 -575 0 -575 0 0 470 0 470 720 0 720 0 0 205 0
205 -980 0 -980 0 0 -1565z"/>
<path d="M105 7363 c-46 -24 -66 -45 -86 -88 -18 -38 -19 -110 -19 -1693 0
-1777 -2 -1690 48 -1745 28 -31 88 -57 132 -57 44 0 104 26 132 57 50 55 48
-31 48 1743 0 1774 2 1688 -48 1743 -47 53 -147 72 -207 40z"/>
<path d="M10905 7363 c-46 -24 -66 -45 -86 -88 -18 -38 -19 -110 -19 -1693 0
-1777 -2 -1690 48 -1745 28 -31 88 -57 132 -57 44 0 104 26 132 57 50 55 48
-31 48 1743 0 1774 2 1688 -48 1743 -47 53 -147 72 -207 40z"/>
<path d="M1880 2680 l0 -1570 225 0 225 0 -2 1184 c-2 652 0 1179 3 1173 308
-570 1028 -1870 1047 -1891 41 -43 81 -56 177 -56 98 0 136 13 181 61 17 19
244 428 504 909 260 481 485 896 499 921 l26 46 -3 -1173 -3 -1174 231 0 230
0 0 1570 0 1570 -205 0 c-222 0 -292 -9 -323 -43 -34 -36 -1064 -1936 -1102
-2031 l-34 -88 -15 34 c-72 163 -184 373 -620 1163 -277 501 -510 918 -519
927 -27 28 -112 38 -323 38 l-199 0 0 -1570z"/>
<path d="M5957 4243 c-4 -3 -7 -710 -7 -1570 l0 -1563 231 0 230 0 -3 1179 -3
1179 52 -96 c29 -53 261 -477 516 -941 378 -691 470 -850 501 -875 36 -29 44
-31 136 -34 115 -4 171 14 212 69 14 19 247 445 519 948 l494 914 3 -1171 2
-1172 225 0 225 0 0 1570 0 1570 -199 0 c-226 0 -297 -9 -326 -43 -11 -12
-251 -446 -533 -964 -440 -808 -557 -1030 -596 -1137 -5 -15 -18 6 -55 91 -55
127 -1071 1976 -1106 2012 -15 15 -41 27 -72 32 -59 10 -437 12 -446 2z"/>
<path d="M105 3143 c-47 -24 -73 -53 -90 -97 -14 -37 -16 -142 -12 -951 3
-884 4 -913 24 -1003 66 -286 173 -482 372 -683 200 -202 410 -317 689 -381
96 -22 111 -22 1002 -26 620 -2 916 0 941 7 106 31 159 152 110 249 -23 46
-46 67 -94 87 -32 13 -146 15 -905 15 -940 0 -953 1 -1111 55 -286 97 -520
331 -617 619 -54 157 -54 160 -54 1102 0 935 1 913 -48 967 -47 53 -147 72
-207 40z"/>
<path d="M10905 3143 c-46 -24 -66 -45 -86 -88 -18 -38 -19 -87 -19 -911 0
-942 -1 -955 -55 -1113 -97 -286 -331 -520 -619 -617 -157 -54 -160 -54 -1102
-54 -765 0 -879 -2 -911 -15 -48 -20 -71 -41 -94 -87 -49 -97 4 -217 110 -249
25 -7 319 -9 941 -7 879 4 908 5 998 25 286 66 482 173 683 372 202 200 317
410 381 689 22 96 22 111 26 1002 2 620 0 916 -7 941 -31 103 -155 160 -246
112z"/>
<path d="M3890 344 c-45 -20 -68 -41 -91 -86 -34 -66 -17 -161 38 -210 55 -50
-31 -48 1743 -48 1774 0 1688 -2 1743 48 31 28 57 88 57 132 0 44 -26 104 -57
132 -55 50 32 48 -1745 48 -1449 -1 -1657 -3 -1688 -16z"/>
</g>
</svg>
