<svg width="1228" height="1241" viewBox="0 0 1228 1241" fill="none" xmlns="http://www.w3.org/2000/svg">
<path d="M0 532.165L306.859 355L613.719 532.165L306.859 709.331L0 532.165Z" fill="#F0BF6E"/>
<path d="M306.859 709.331V1063.66L0 886.496V532.166L306.859 709.331Z" fill="#EC8248"/>
<path d="M613.719 532.166V886.496L306.859 1063.66V709.331L613.719 532.166Z" fill="#740603"/>
<path d="M0 177.165L306.859 0L613.719 177.165L306.859 354.331L0 177.165Z" fill="#4AA784"/>
<path d="M306.859 354.331V708.662L0 531.496V177.166L306.859 354.331Z" fill="#398E6E"/>
<path d="M613.719 177.166V531.496L306.859 708.662V354.331L613.719 177.166Z" fill="#2F7C5F"/>
<path d="M614 531.165L920.859 354L1227.72 531.165L920.859 708.331L614 531.165Z" fill="#E15F40"/>
<path d="M920.859 708.496V1062.83L614 885.662V531.331L920.859 708.496Z" fill="#B9482D"/>
<path d="M1227.72 531.331V885.662L920.859 1062.83V708.496L1227.72 531.331Z" fill="#B9482D"/>
<path d="M307 709.165L613.859 532L920.719 709.165L613.859 886.331L307 709.165Z" fill="#345D98"/>
<path d="M613.859 886.331V1240.66L307 1063.5V709.166L613.859 886.331Z" fill="#264D84"/>
<path d="M920.719 709.166V1063.5L613.859 1240.66V886.331L920.719 709.166Z" fill="#214477"/>
</svg>
